<svg width="58" height="57" viewBox="0 0 58 57" fill="none" xmlns="http://www.w3.org/2000/svg">
<path d="M29.1607 33.7222C31.8966 33.7222 34.1361 31.4937 34.1361 28.7467C34.1361 27.6656 33.7831 26.6616 33.1984 25.8453C32.2938 24.5986 30.8265 23.7712 29.1717 23.7712C27.5169 23.7712 26.0496 24.5876 25.145 25.8453C24.5603 26.6616 24.2073 27.6656 24.2073 28.7467C24.1962 31.4937 26.4247 33.7222 29.1607 33.7222Z" fill="black"/>
<path d="M40.0162 22.6793V18.5092V17.8914H39.3984L35.2283 17.9024L35.2503 22.6903L40.0162 22.6793Z" fill="black"/>
<path d="M36.8831 28.7581C36.8831 33.0165 33.419 36.4806 29.1606 36.4806C24.9023 36.4806 21.4382 33.0165 21.4382 28.7581C21.4382 27.7321 21.6478 26.7503 22.0119 25.8567H17.7976V37.4183C17.7976 38.9076 19.0111 40.1211 20.5005 40.1211H37.8208C39.3101 40.1211 40.5237 38.9076 40.5237 37.4183V25.8567H36.3094C36.6845 26.7503 36.8831 27.7321 36.8831 28.7581Z" fill="black"/>
<path d="M29.1607 0.515869C13.5613 0.515869 0.918579 13.1586 0.918579 28.758C0.918579 44.3573 13.5613 57 29.1607 57C44.76 57 57.4027 44.3573 57.4027 28.758C57.4027 13.1586 44.76 0.515869 29.1607 0.515869ZM43.2817 25.8565V37.4181C43.2817 40.4299 40.8326 42.879 37.8208 42.879H20.5005C17.4887 42.879 15.0396 40.4299 15.0396 37.4181V25.8565V20.0868C15.0396 17.075 17.4887 14.6259 20.5005 14.6259H37.8208C40.8326 14.6259 43.2817 17.075 43.2817 20.0868V25.8565Z" fill="black"/>
</svg>
