<svg width="41" height="59" viewBox="0 0 41 59" fill="none" xmlns="http://www.w3.org/2000/svg">
<path d="M20.5 2V20.3333M20.5 2C11.3071 2 5.54025 8.79039 3.19948 12.2485C2.8933 12.7007 2.74022 12.9269 2.51997 13.4241C2.36667 13.7703 2.16391 14.4306 2.09663 14.8027C2 15.3372 2 15.735 2 16.5305V38.6667C2 48.7919 10.2827 57 20.5 57C30.7172 57 39 48.7919 39 38.6667V16.5305C39 15.735 39 15.3372 38.9035 14.8027C38.836 14.4306 38.6334 13.7703 38.4801 13.4241C38.2597 12.9269 38.1068 12.7007 37.8006 12.2485C35.4597 8.79039 29.693 2 20.5 2Z" stroke="white" stroke-width="3" stroke-linecap="round" stroke-linejoin="round"/>
</svg>
