<svg width="57" height="57" viewBox="0 0 57 57" fill="none" xmlns="http://www.w3.org/2000/svg">
<path fill-rule="evenodd" clip-rule="evenodd" d="M44.6818 39.8809C44.0012 41.8076 41.2956 43.4015 39.1379 43.8676C37.6608 44.1812 35.7347 44.4293 29.2447 41.7398C21.9554 38.7198 11.8334 27.9624 11.8334 20.8037C11.8334 17.1594 13.9346 12.9158 17.6089 12.9158C19.3769 12.9158 19.7666 12.9503 20.3484 14.3458C21.0291 15.99 22.6897 20.0409 22.8874 20.4562C23.7036 22.1597 22.057 23.157 20.8624 24.6401C20.4811 25.0865 20.0491 25.5692 20.532 26.3997C21.0121 27.2134 22.6727 29.9198 25.1129 32.0923C28.2647 34.9004 30.8206 35.7969 31.7356 36.1783C32.4163 36.4608 33.2296 36.395 33.7267 35.8639C34.3565 35.183 35.1388 34.0534 35.9352 32.9404C36.4972 32.1437 37.2118 32.0442 37.9602 32.3267C38.4657 32.5019 44.8908 35.4857 45.1619 35.9631C45.3624 36.3106 45.3625 37.9542 44.6818 39.8809ZM28.2477 0H28.2336C12.6637 0 0 12.6676 0 28.2421C0 34.4177 1.99109 40.1471 5.37731 44.7943L1.85834 55.2886L12.7118 51.8204C17.1769 54.7754 22.5061 56.4842 28.2477 56.4842C43.8176 56.4842 56.4842 43.8166 56.4842 28.2421C56.4842 12.6676 43.8176 0 28.2477 0Z" fill="black"/>
</svg>
